<svg width="12" height="16" viewBox="0 0 12 16" fill="none" xmlns="http://www.w3.org/2000/svg">
<path d="M11.7071 8.70711C12.0976 8.31658 12.0976 7.68342 11.7071 7.29289L5.34315 0.928932C4.95262 0.538408 4.31946 0.538408 3.92893 0.928932C3.53841 1.31946 3.53841 1.95262 3.92893 2.34315L9.58579 8L3.92893 13.6569C3.53841 14.0474 3.53841 14.6805 3.92893 15.0711C4.31946 15.4616 4.95262 15.4616 5.34315 15.0711L11.7071 8.70711ZM10 9H11V7H10V9Z" fill="white"/>
<path d="M6.53033 8.53033C6.82322 8.23744 6.82322 7.76256 6.53033 7.46967L1.75736 2.6967C1.46447 2.40381 0.989593 2.40381 0.696699 2.6967C0.403806 2.98959 0.403806 3.46447 0.696699 3.75736L4.93934 8L0.696699 12.2426C0.403806 12.5355 0.403806 13.0104 0.696699 13.3033C0.989593 13.5962 1.46447 13.5962 1.75736 13.3033L6.53033 8.53033ZM5 8.75H6V7.25H5V8.75Z" fill="white"/>
</svg>
